<mxfile host="app.diagrams.net" agent="Mozilla/5.0 (Windows NT 10.0; Win64; x64) AppleWebKit/537.36 (KHTML, like Gecko) Chrome/137.0.0.0 Safari/537.36" version="27.1.6">
  <diagram name="PÃ¡gina-1" id="u-1weJq-VjkqgeNGdhfN">
    <mxGraphModel dx="735" dy="420" grid="1" gridSize="10" guides="1" tooltips="1" connect="1" arrows="1" fold="1" page="1" pageScale="1" pageWidth="827" pageHeight="1169" math="1" shadow="0">
      <root>
        <mxCell id="0" />
        <mxCell id="1" parent="0" />
        <mxCell id="UL8uIya0dz0M6-IwMwsz-1" value="" style="group" vertex="1" connectable="0" parent="1">
          <mxGeometry x="210" y="210" width="900" height="654" as="geometry" />
        </mxCell>
        <mxCell id="UL8uIya0dz0M6-IwMwsz-2" style="edgeStyle=orthogonalEdgeStyle;rounded=0;orthogonalLoop=1;jettySize=auto;html=1;exitX=0;exitY=0.5;exitDx=0;exitDy=0;entryX=0.5;entryY=1;entryDx=0;entryDy=0;curved=1;" edge="1" parent="UL8uIya0dz0M6-IwMwsz-1" source="UL8uIya0dz0M6-IwMwsz-22" target="UL8uIya0dz0M6-IwMwsz-3">
          <mxGeometry relative="1" as="geometry" />
        </mxCell>
        <mxCell id="UL8uIya0dz0M6-IwMwsz-3" value="0" style="ellipse;whiteSpace=wrap;html=1;aspect=fixed;" vertex="1" parent="UL8uIya0dz0M6-IwMwsz-1">
          <mxGeometry x="440" y="100" width="80" height="80" as="geometry" />
        </mxCell>
        <mxCell id="UL8uIya0dz0M6-IwMwsz-4" style="edgeStyle=orthogonalEdgeStyle;rounded=0;orthogonalLoop=1;jettySize=auto;html=1;exitX=0.5;exitY=0;exitDx=0;exitDy=0;entryX=0;entryY=0.5;entryDx=0;entryDy=0;curved=1;" edge="1" parent="UL8uIya0dz0M6-IwMwsz-1" source="UL8uIya0dz0M6-IwMwsz-5" target="UL8uIya0dz0M6-IwMwsz-24">
          <mxGeometry relative="1" as="geometry" />
        </mxCell>
        <mxCell id="UL8uIya0dz0M6-IwMwsz-5" value="6" style="ellipse;whiteSpace=wrap;html=1;aspect=fixed;" vertex="1" parent="UL8uIya0dz0M6-IwMwsz-1">
          <mxGeometry x="160" y="200" width="80" height="80" as="geometry" />
        </mxCell>
        <mxCell id="UL8uIya0dz0M6-IwMwsz-6" style="edgeStyle=orthogonalEdgeStyle;rounded=0;orthogonalLoop=1;jettySize=auto;html=1;exitX=0;exitY=0;exitDx=0;exitDy=0;entryX=0;entryY=1;entryDx=0;entryDy=0;strokeColor=none;curved=1;" edge="1" parent="UL8uIya0dz0M6-IwMwsz-1" source="UL8uIya0dz0M6-IwMwsz-9" target="UL8uIya0dz0M6-IwMwsz-5">
          <mxGeometry relative="1" as="geometry">
            <Array as="points">
              <mxPoint x="150" y="382" />
              <mxPoint x="150" y="268" />
            </Array>
          </mxGeometry>
        </mxCell>
        <mxCell id="UL8uIya0dz0M6-IwMwsz-7" style="edgeStyle=orthogonalEdgeStyle;rounded=0;orthogonalLoop=1;jettySize=auto;html=1;exitX=0;exitY=0;exitDx=0;exitDy=0;entryX=0;entryY=1;entryDx=0;entryDy=0;curved=1;" edge="1" parent="UL8uIya0dz0M6-IwMwsz-1" source="UL8uIya0dz0M6-IwMwsz-9" target="UL8uIya0dz0M6-IwMwsz-5">
          <mxGeometry relative="1" as="geometry">
            <Array as="points">
              <mxPoint x="150" y="382" />
              <mxPoint x="150" y="268" />
            </Array>
          </mxGeometry>
        </mxCell>
        <mxCell id="UL8uIya0dz0M6-IwMwsz-8" style="edgeStyle=orthogonalEdgeStyle;rounded=0;orthogonalLoop=1;jettySize=auto;html=1;exitX=1;exitY=1;exitDx=0;exitDy=0;entryX=1;entryY=0;entryDx=0;entryDy=0;curved=1;" edge="1" parent="UL8uIya0dz0M6-IwMwsz-1" source="UL8uIya0dz0M6-IwMwsz-5" target="UL8uIya0dz0M6-IwMwsz-9">
          <mxGeometry relative="1" as="geometry">
            <Array as="points">
              <mxPoint x="240" y="268" />
              <mxPoint x="240" y="382" />
            </Array>
          </mxGeometry>
        </mxCell>
        <mxCell id="UL8uIya0dz0M6-IwMwsz-9" value="5" style="ellipse;whiteSpace=wrap;html=1;aspect=fixed;" vertex="1" parent="UL8uIya0dz0M6-IwMwsz-1">
          <mxGeometry x="160" y="370" width="80" height="80" as="geometry" />
        </mxCell>
        <mxCell id="UL8uIya0dz0M6-IwMwsz-10" style="edgeStyle=orthogonalEdgeStyle;rounded=0;orthogonalLoop=1;jettySize=auto;html=1;exitX=1;exitY=0.5;exitDx=0;exitDy=0;entryX=0;entryY=0;entryDx=0;entryDy=0;curved=1;" edge="1" parent="UL8uIya0dz0M6-IwMwsz-1" source="UL8uIya0dz0M6-IwMwsz-9" target="UL8uIya0dz0M6-IwMwsz-12">
          <mxGeometry relative="1" as="geometry">
            <Array as="points">
              <mxPoint x="312" y="410" />
            </Array>
          </mxGeometry>
        </mxCell>
        <mxCell id="UL8uIya0dz0M6-IwMwsz-11" style="edgeStyle=orthogonalEdgeStyle;rounded=0;orthogonalLoop=1;jettySize=auto;html=1;exitX=0;exitY=0.5;exitDx=0;exitDy=0;entryX=0.5;entryY=1;entryDx=0;entryDy=0;curved=1;" edge="1" parent="UL8uIya0dz0M6-IwMwsz-1" source="UL8uIya0dz0M6-IwMwsz-12" target="UL8uIya0dz0M6-IwMwsz-9">
          <mxGeometry relative="1" as="geometry">
            <Array as="points">
              <mxPoint x="200" y="520" />
            </Array>
          </mxGeometry>
        </mxCell>
        <mxCell id="UL8uIya0dz0M6-IwMwsz-12" value="4" style="ellipse;whiteSpace=wrap;html=1;aspect=fixed;" vertex="1" parent="UL8uIya0dz0M6-IwMwsz-1">
          <mxGeometry x="300" y="480" width="80" height="80" as="geometry" />
        </mxCell>
        <mxCell id="UL8uIya0dz0M6-IwMwsz-13" style="edgeStyle=orthogonalEdgeStyle;rounded=0;orthogonalLoop=1;jettySize=auto;html=1;exitX=1;exitY=0;exitDx=0;exitDy=0;entryX=0;entryY=0;entryDx=0;entryDy=0;curved=1;" edge="1" parent="UL8uIya0dz0M6-IwMwsz-1" source="UL8uIya0dz0M6-IwMwsz-12" target="UL8uIya0dz0M6-IwMwsz-16">
          <mxGeometry relative="1" as="geometry">
            <Array as="points">
              <mxPoint x="368" y="470" />
              <mxPoint x="452" y="470" />
            </Array>
          </mxGeometry>
        </mxCell>
        <mxCell id="UL8uIya0dz0M6-IwMwsz-14" style="edgeStyle=orthogonalEdgeStyle;rounded=0;orthogonalLoop=1;jettySize=auto;html=1;exitX=0;exitY=1;exitDx=0;exitDy=0;entryX=1;entryY=1;entryDx=0;entryDy=0;curved=1;" edge="1" parent="UL8uIya0dz0M6-IwMwsz-1" source="UL8uIya0dz0M6-IwMwsz-16" target="UL8uIya0dz0M6-IwMwsz-12">
          <mxGeometry relative="1" as="geometry">
            <Array as="points">
              <mxPoint x="452" y="560" />
              <mxPoint x="368" y="560" />
            </Array>
          </mxGeometry>
        </mxCell>
        <mxCell id="UL8uIya0dz0M6-IwMwsz-15" style="edgeStyle=orthogonalEdgeStyle;rounded=0;orthogonalLoop=1;jettySize=auto;html=1;exitX=1;exitY=0;exitDx=0;exitDy=0;entryX=0;entryY=0.5;entryDx=0;entryDy=0;curved=1;" edge="1" parent="UL8uIya0dz0M6-IwMwsz-1" source="UL8uIya0dz0M6-IwMwsz-16" target="UL8uIya0dz0M6-IwMwsz-18">
          <mxGeometry relative="1" as="geometry">
            <Array as="points">
              <mxPoint x="508" y="400" />
            </Array>
          </mxGeometry>
        </mxCell>
        <mxCell id="UL8uIya0dz0M6-IwMwsz-16" value="3" style="ellipse;whiteSpace=wrap;html=1;aspect=fixed;" vertex="1" parent="UL8uIya0dz0M6-IwMwsz-1">
          <mxGeometry x="440" y="480" width="80" height="80" as="geometry" />
        </mxCell>
        <mxCell id="UL8uIya0dz0M6-IwMwsz-17" style="edgeStyle=orthogonalEdgeStyle;rounded=0;orthogonalLoop=1;jettySize=auto;html=1;exitX=0.5;exitY=1;exitDx=0;exitDy=0;entryX=1;entryY=0.5;entryDx=0;entryDy=0;curved=1;" edge="1" parent="UL8uIya0dz0M6-IwMwsz-1" source="UL8uIya0dz0M6-IwMwsz-18" target="UL8uIya0dz0M6-IwMwsz-16">
          <mxGeometry relative="1" as="geometry" />
        </mxCell>
        <mxCell id="UL8uIya0dz0M6-IwMwsz-18" value="2" style="ellipse;whiteSpace=wrap;html=1;aspect=fixed;" vertex="1" parent="UL8uIya0dz0M6-IwMwsz-1">
          <mxGeometry x="580" y="360" width="80" height="80" as="geometry" />
        </mxCell>
        <mxCell id="UL8uIya0dz0M6-IwMwsz-19" style="edgeStyle=orthogonalEdgeStyle;rounded=0;orthogonalLoop=1;jettySize=auto;html=1;exitX=1;exitY=0.5;exitDx=0;exitDy=0;entryX=0.5;entryY=0;entryDx=0;entryDy=0;curved=1;" edge="1" parent="UL8uIya0dz0M6-IwMwsz-1" source="UL8uIya0dz0M6-IwMwsz-3" target="UL8uIya0dz0M6-IwMwsz-22">
          <mxGeometry relative="1" as="geometry" />
        </mxCell>
        <mxCell id="UL8uIya0dz0M6-IwMwsz-20" style="edgeStyle=orthogonalEdgeStyle;rounded=0;orthogonalLoop=1;jettySize=auto;html=1;exitX=0;exitY=0;exitDx=0;exitDy=0;entryX=0;entryY=1;entryDx=0;entryDy=0;curved=1;" edge="1" parent="UL8uIya0dz0M6-IwMwsz-1" source="UL8uIya0dz0M6-IwMwsz-18" target="UL8uIya0dz0M6-IwMwsz-22">
          <mxGeometry relative="1" as="geometry">
            <Array as="points">
              <mxPoint x="570" y="372" />
              <mxPoint x="570" y="288" />
            </Array>
          </mxGeometry>
        </mxCell>
        <mxCell id="UL8uIya0dz0M6-IwMwsz-21" style="edgeStyle=orthogonalEdgeStyle;rounded=0;orthogonalLoop=1;jettySize=auto;html=1;exitX=1;exitY=1;exitDx=0;exitDy=0;entryX=1;entryY=0;entryDx=0;entryDy=0;curved=1;" edge="1" parent="UL8uIya0dz0M6-IwMwsz-1" source="UL8uIya0dz0M6-IwMwsz-22" target="UL8uIya0dz0M6-IwMwsz-18">
          <mxGeometry relative="1" as="geometry">
            <Array as="points">
              <mxPoint x="660" y="288" />
              <mxPoint x="660" y="372" />
            </Array>
          </mxGeometry>
        </mxCell>
        <mxCell id="UL8uIya0dz0M6-IwMwsz-22" value="1" style="ellipse;whiteSpace=wrap;html=1;aspect=fixed;" vertex="1" parent="UL8uIya0dz0M6-IwMwsz-1">
          <mxGeometry x="580" y="220" width="80" height="80" as="geometry" />
        </mxCell>
        <mxCell id="UL8uIya0dz0M6-IwMwsz-23" style="edgeStyle=orthogonalEdgeStyle;rounded=0;orthogonalLoop=1;jettySize=auto;html=1;exitX=0;exitY=1;exitDx=0;exitDy=0;entryX=1;entryY=0.5;entryDx=0;entryDy=0;curved=1;" edge="1" parent="UL8uIya0dz0M6-IwMwsz-1" source="UL8uIya0dz0M6-IwMwsz-24" target="UL8uIya0dz0M6-IwMwsz-5">
          <mxGeometry relative="1" as="geometry">
            <Array as="points">
              <mxPoint x="312" y="240" />
            </Array>
          </mxGeometry>
        </mxCell>
        <mxCell id="UL8uIya0dz0M6-IwMwsz-24" value="7" style="ellipse;whiteSpace=wrap;html=1;aspect=fixed;" vertex="1" parent="UL8uIya0dz0M6-IwMwsz-1">
          <mxGeometry x="300" y="100" width="80" height="80" as="geometry" />
        </mxCell>
        <mxCell id="UL8uIya0dz0M6-IwMwsz-25" style="edgeStyle=orthogonalEdgeStyle;rounded=0;orthogonalLoop=1;jettySize=auto;html=1;exitX=1;exitY=0;exitDx=0;exitDy=0;entryX=0;entryY=0;entryDx=0;entryDy=0;curved=1;" edge="1" parent="UL8uIya0dz0M6-IwMwsz-1" source="UL8uIya0dz0M6-IwMwsz-24" target="UL8uIya0dz0M6-IwMwsz-24">
          <mxGeometry relative="1" as="geometry">
            <Array as="points">
              <mxPoint x="370" y="112" />
              <mxPoint x="370" y="40" />
              <mxPoint x="312" y="40" />
            </Array>
          </mxGeometry>
        </mxCell>
        <mxCell id="UL8uIya0dz0M6-IwMwsz-26" style="edgeStyle=orthogonalEdgeStyle;rounded=0;orthogonalLoop=1;jettySize=auto;html=1;exitX=0;exitY=0;exitDx=0;exitDy=0;entryX=0;entryY=0.5;entryDx=0;entryDy=0;curved=1;" edge="1" parent="UL8uIya0dz0M6-IwMwsz-1" source="UL8uIya0dz0M6-IwMwsz-5" target="UL8uIya0dz0M6-IwMwsz-5">
          <mxGeometry relative="1" as="geometry">
            <Array as="points">
              <mxPoint x="172" y="190" />
              <mxPoint x="80" y="190" />
              <mxPoint x="80" y="240" />
            </Array>
          </mxGeometry>
        </mxCell>
        <mxCell id="UL8uIya0dz0M6-IwMwsz-27" style="edgeStyle=orthogonalEdgeStyle;rounded=0;orthogonalLoop=1;jettySize=auto;html=1;exitX=0;exitY=0.5;exitDx=0;exitDy=0;entryX=0;entryY=1;entryDx=0;entryDy=0;curved=1;" edge="1" parent="UL8uIya0dz0M6-IwMwsz-1" source="UL8uIya0dz0M6-IwMwsz-9" target="UL8uIya0dz0M6-IwMwsz-9">
          <mxGeometry relative="1" as="geometry">
            <Array as="points">
              <mxPoint x="160" y="400" />
              <mxPoint x="90" y="400" />
              <mxPoint x="90" y="450" />
              <mxPoint x="172" y="450" />
            </Array>
          </mxGeometry>
        </mxCell>
        <mxCell id="UL8uIya0dz0M6-IwMwsz-28" style="edgeStyle=orthogonalEdgeStyle;rounded=0;orthogonalLoop=1;jettySize=auto;html=1;exitX=0;exitY=1;exitDx=0;exitDy=0;entryX=0.5;entryY=1;entryDx=0;entryDy=0;curved=1;" edge="1" parent="UL8uIya0dz0M6-IwMwsz-1" source="UL8uIya0dz0M6-IwMwsz-12" target="UL8uIya0dz0M6-IwMwsz-12">
          <mxGeometry relative="1" as="geometry">
            <Array as="points">
              <mxPoint x="300" y="548" />
              <mxPoint x="300" y="620" />
              <mxPoint x="340" y="620" />
            </Array>
          </mxGeometry>
        </mxCell>
        <mxCell id="UL8uIya0dz0M6-IwMwsz-29" style="edgeStyle=orthogonalEdgeStyle;rounded=0;orthogonalLoop=1;jettySize=auto;html=1;exitX=0.5;exitY=1;exitDx=0;exitDy=0;entryX=1;entryY=1;entryDx=0;entryDy=0;curved=1;" edge="1" parent="UL8uIya0dz0M6-IwMwsz-1" source="UL8uIya0dz0M6-IwMwsz-16" target="UL8uIya0dz0M6-IwMwsz-16">
          <mxGeometry relative="1" as="geometry">
            <Array as="points">
              <mxPoint x="480" y="620" />
              <mxPoint x="520" y="620" />
              <mxPoint x="520" y="548" />
            </Array>
          </mxGeometry>
        </mxCell>
        <mxCell id="UL8uIya0dz0M6-IwMwsz-30" style="edgeStyle=orthogonalEdgeStyle;rounded=0;orthogonalLoop=1;jettySize=auto;html=1;exitX=1;exitY=1;exitDx=0;exitDy=0;entryX=1;entryY=0.5;entryDx=0;entryDy=0;curved=1;" edge="1" parent="UL8uIya0dz0M6-IwMwsz-1" source="UL8uIya0dz0M6-IwMwsz-18" target="UL8uIya0dz0M6-IwMwsz-18">
          <mxGeometry relative="1" as="geometry">
            <Array as="points">
              <mxPoint x="648" y="440" />
              <mxPoint x="710" y="440" />
              <mxPoint x="710" y="400" />
            </Array>
          </mxGeometry>
        </mxCell>
        <mxCell id="UL8uIya0dz0M6-IwMwsz-31" style="edgeStyle=orthogonalEdgeStyle;rounded=0;orthogonalLoop=1;jettySize=auto;html=1;exitX=1;exitY=0.5;exitDx=0;exitDy=0;entryX=1;entryY=0;entryDx=0;entryDy=0;curved=1;" edge="1" parent="UL8uIya0dz0M6-IwMwsz-1" source="UL8uIya0dz0M6-IwMwsz-22" target="UL8uIya0dz0M6-IwMwsz-22">
          <mxGeometry relative="1" as="geometry">
            <Array as="points">
              <mxPoint x="660" y="270" />
              <mxPoint x="720" y="270" />
              <mxPoint x="720" y="232" />
            </Array>
          </mxGeometry>
        </mxCell>
        <mxCell id="UL8uIya0dz0M6-IwMwsz-32" style="edgeStyle=orthogonalEdgeStyle;rounded=0;orthogonalLoop=1;jettySize=auto;html=1;exitX=1;exitY=0;exitDx=0;exitDy=0;entryX=0.5;entryY=0;entryDx=0;entryDy=0;curved=1;" edge="1" parent="UL8uIya0dz0M6-IwMwsz-1" source="UL8uIya0dz0M6-IwMwsz-3" target="UL8uIya0dz0M6-IwMwsz-3">
          <mxGeometry relative="1" as="geometry">
            <Array as="points">
              <mxPoint x="530" y="112" />
              <mxPoint x="530" y="30" />
              <mxPoint x="480" y="30" />
            </Array>
          </mxGeometry>
        </mxCell>
        <mxCell id="UL8uIya0dz0M6-IwMwsz-33" value="$$\overline{Z_1},\,Z_0Â \,/\, 0$$" style="text;whiteSpace=wrap;" vertex="1" parent="UL8uIya0dz0M6-IwMwsz-1">
          <mxGeometry x="620" y="130" width="280" height="40" as="geometry" />
        </mxCell>
        <mxCell id="UL8uIya0dz0M6-IwMwsz-34" value="$$\overline{Z_1},\,Z_0Â \,/\, 0$$" style="text;whiteSpace=wrap;" vertex="1" parent="UL8uIya0dz0M6-IwMwsz-1">
          <mxGeometry x="600" y="500" width="280" height="40" as="geometry" />
        </mxCell>
        <mxCell id="UL8uIya0dz0M6-IwMwsz-35" value="$$\overline{Z_1},\,Z_0Â \,/\, 0$$" style="text;whiteSpace=wrap;" vertex="1" parent="UL8uIya0dz0M6-IwMwsz-1">
          <mxGeometry x="380" y="560" width="280" height="40" as="geometry" />
        </mxCell>
        <mxCell id="UL8uIya0dz0M6-IwMwsz-36" value="$$\overline{Z_1},\,Z_0Â \,/\, 0$$" style="text;whiteSpace=wrap;" vertex="1" parent="UL8uIya0dz0M6-IwMwsz-1">
          <mxGeometry x="180" y="500" width="280" height="40" as="geometry" />
        </mxCell>
        <mxCell id="UL8uIya0dz0M6-IwMwsz-37" value="$$\overline{Z_1},\,Z_0Â \,/\, 0$$" style="text;whiteSpace=wrap;" vertex="1" parent="UL8uIya0dz0M6-IwMwsz-1">
          <mxGeometry x="80" y="300" width="280" height="40" as="geometry" />
        </mxCell>
        <mxCell id="UL8uIya0dz0M6-IwMwsz-38" value="&lt;div&gt;$$\overline{Z_1},\,Z_0 \,/\, 1$$&lt;/div&gt;&lt;div&gt;&lt;br&gt;&lt;/div&gt;" style="text;html=1;align=center;verticalAlign=middle;resizable=0;points=[];autosize=1;strokeColor=none;fillColor=none;" vertex="1" parent="UL8uIya0dz0M6-IwMwsz-1">
          <mxGeometry x="150" y="110" width="180" height="40" as="geometry" />
        </mxCell>
        <mxCell id="UL8uIya0dz0M6-IwMwsz-39" value="$$\overline{Z_1},\,\overline{Z_0} \,/\, 1$$" style="text;html=1;align=center;verticalAlign=middle;resizable=0;points=[];autosize=1;strokeColor=none;fillColor=none;" vertex="1" parent="UL8uIya0dz0M6-IwMwsz-1">
          <mxGeometry x="230" width="240" height="30" as="geometry" />
        </mxCell>
        <mxCell id="UL8uIya0dz0M6-IwMwsz-40" value="$$\overline{Z_1},\,\overline{Z_0} \,/\, 0$$" style="text;whiteSpace=wrap;" vertex="1" parent="UL8uIya0dz0M6-IwMwsz-1">
          <mxGeometry x="510" y="610" width="250" height="40" as="geometry" />
        </mxCell>
        <mxCell id="UL8uIya0dz0M6-IwMwsz-41" value="$$\overline{Z_1},\,\overline{Z_0} \,/\, 0$$" style="text;whiteSpace=wrap;" vertex="1" parent="UL8uIya0dz0M6-IwMwsz-1">
          <mxGeometry x="520" width="250" height="40" as="geometry" />
        </mxCell>
        <mxCell id="UL8uIya0dz0M6-IwMwsz-42" value="$$\overline{Z_1},\,\overline{Z_0} \,/\, 0$$" style="text;whiteSpace=wrap;" vertex="1" parent="UL8uIya0dz0M6-IwMwsz-1">
          <mxGeometry x="280" y="614" width="250" height="40" as="geometry" />
        </mxCell>
        <mxCell id="UL8uIya0dz0M6-IwMwsz-43" value="$$\overline{Z_1},\,\overline{Z_0} \,/\, 0$$" style="text;whiteSpace=wrap;" vertex="1" parent="UL8uIya0dz0M6-IwMwsz-1">
          <mxGeometry x="30" y="410" width="250" height="40" as="geometry" />
        </mxCell>
        <mxCell id="UL8uIya0dz0M6-IwMwsz-44" value="$$\overline{Z_1},\,\overline{Z_0} \,/\, 0$$" style="text;whiteSpace=wrap;" vertex="1" parent="UL8uIya0dz0M6-IwMwsz-1">
          <mxGeometry y="160" width="250" height="40" as="geometry" />
        </mxCell>
        <mxCell id="UL8uIya0dz0M6-IwMwsz-45" value="$$Z_1,\,\overline{Z_0} \,/\, 0$$" style="text;whiteSpace=wrap;" vertex="1" parent="UL8uIya0dz0M6-IwMwsz-1">
          <mxGeometry x="380" y="420" width="120" height="40" as="geometry" />
        </mxCell>
        <mxCell id="UL8uIya0dz0M6-IwMwsz-46" value="$$Z_1,\,\overline{Z_0} \,/\, 0$$" style="text;whiteSpace=wrap;" vertex="1" parent="UL8uIya0dz0M6-IwMwsz-1">
          <mxGeometry x="490" y="370" width="120" height="40" as="geometry" />
        </mxCell>
        <mxCell id="UL8uIya0dz0M6-IwMwsz-47" value="$$Z_1,\,\overline{Z_0} \,/\, 0$$" style="text;whiteSpace=wrap;" vertex="1" parent="UL8uIya0dz0M6-IwMwsz-1">
          <mxGeometry x="500" y="290" width="120" height="40" as="geometry" />
        </mxCell>
        <mxCell id="UL8uIya0dz0M6-IwMwsz-48" value="$$Z_1,\,\overline{Z_0} \,/\, 0$$" style="text;whiteSpace=wrap;" vertex="1" parent="UL8uIya0dz0M6-IwMwsz-1">
          <mxGeometry x="430" y="210" width="120" height="40" as="geometry" />
        </mxCell>
        <mxCell id="UL8uIya0dz0M6-IwMwsz-49" value="$$Z_1,\,\overline{Z_0} \,/\, 0$$" style="text;whiteSpace=wrap;" vertex="1" parent="UL8uIya0dz0M6-IwMwsz-1">
          <mxGeometry x="280" y="380" width="120" height="40" as="geometry" />
        </mxCell>
        <mxCell id="UL8uIya0dz0M6-IwMwsz-50" value="$$Z_1,\,\overline{Z_0} \,/\, 0$$" style="text;whiteSpace=wrap;" vertex="1" parent="UL8uIya0dz0M6-IwMwsz-1">
          <mxGeometry x="250" y="290" width="120" height="40" as="geometry" />
        </mxCell>
        <mxCell id="UL8uIya0dz0M6-IwMwsz-51" value="$$Z_1,\,\overline{Z_0} \,/\, 0$$" style="text;whiteSpace=wrap;" vertex="1" parent="UL8uIya0dz0M6-IwMwsz-1">
          <mxGeometry x="290" y="210" width="120" height="40" as="geometry" />
        </mxCell>
      </root>
    </mxGraphModel>
  </diagram>
</mxfile>
